<svg version="1.1" id="Layer_1" xmlns="http://www.w3.org/2000/svg" xmlns:xlink="http://www.w3.org/1999/xlink" x="0px" y="0px"
	 width="100%" viewBox="0 0 1010 250" enable-background="new 0 0 1010 250" xml:space="preserve">
<path fill="#FEFEFF" opacity="1.000000" stroke="none" 
	d="
M662.000000,251.000000 
	C442.833344,251.000000 224.166672,250.988800 5.500045,251.093491 
	C1.750784,251.095291 0.898823,250.249908 0.904670,246.499847 
	C1.030177,166.000046 1.027874,85.499954 0.903941,5.000148 
	C0.898669,1.575783 1.576592,0.904986 5.000028,0.906019 
	C339.000000,1.006781 673.000000,1.006781 1007.000000,0.906019 
	C1010.423401,0.904986 1011.101318,1.575786 1011.096069,5.000147 
	C1010.972229,85.666618 1010.972229,166.333374 1011.096069,246.999847 
	C1011.101318,250.424210 1010.423889,251.098694 1006.999878,251.095276 
	C892.166687,250.980392 777.333313,251.000000 662.000000,251.000000 
z"/>
<path fill="#945EFF" opacity="1.000000" stroke="none" 
	d="
M905.595947,56.805195 
	C905.832275,57.233456 905.876587,57.397480 905.940369,57.815598 
	C908.065674,59.803375 908.619690,62.617973 910.674194,64.788422 
	C917.171997,77.586861 917.392883,91.033188 916.656128,104.588562 
	C916.087830,115.046211 912.676514,124.370255 906.933777,133.321335 
	C902.276794,140.580063 896.852722,146.647369 889.876770,151.417542 
	C884.205139,155.295731 877.924011,157.571808 871.141174,159.210342 
	C865.462952,160.582062 859.923584,162.124603 854.140747,161.487793 
	C837.072937,159.608154 822.197754,153.726334 810.959839,139.656906 
	C805.057129,132.267029 800.764709,124.104630 798.641663,115.429062 
	C796.249939,105.655457 795.078857,95.490311 797.005249,84.983223 
	C798.990173,74.156181 801.955322,63.903240 808.568237,55.299263 
	C815.687561,46.036514 823.879517,37.576916 836.549194,34.967838 
	C837.720642,34.266895 838.557678,33.711185 839.717224,33.106880 
	C841.632690,32.879768 843.265381,32.759541 845.300842,32.582275 
	C852.563232,30.710678 859.468567,31.298447 866.841064,32.317513 
	C869.252991,32.652554 871.202271,32.801777 873.570435,33.008774 
	C874.983948,33.340412 875.836914,33.857182 876.784790,34.789009 
	C877.720703,35.078777 878.444702,35.154011 879.518188,35.330872 
	C882.180786,37.156723 885.397034,37.238071 887.590332,39.820732 
	C888.354126,40.259922 888.908142,40.440517 889.729736,40.743584 
	C890.926819,41.284313 891.708069,41.905495 892.564453,42.891479 
	C892.715820,43.152016 892.823853,43.146976 892.849976,43.194305 
	C894.481934,44.616135 896.482239,45.565956 897.724731,47.798355 
	C897.930969,48.042957 898.000061,48.009541 897.976624,48.039955 
	C898.872253,48.853500 899.683716,49.747742 900.753296,50.808022 
	C900.956909,51.030354 900.991943,50.995071 900.983093,51.017799 
	C903.297729,52.191967 904.156982,54.522602 905.595947,56.805195 
z"/>
<path fill="#955FFF" opacity="1.000000" stroke="none" 
	d="
M714.384033,105.771957 
	C714.026489,106.048309 713.853638,106.489967 713.738525,106.697296 
	C712.543396,109.462044 713.033630,112.154663 713.020325,114.784935 
	C712.963013,126.077347 713.004578,137.370209 712.990295,148.662903 
	C712.986938,151.313705 713.095703,153.993042 711.378784,156.785095 
	C710.481506,159.785355 708.370728,158.551086 706.462524,158.751892 
	C705.377747,158.173080 704.484009,157.990067 703.635315,157.135635 
	C701.421448,155.776703 701.045898,153.970612 701.047546,151.838898 
	C701.077271,114.531883 701.049500,77.224823 701.093994,39.917835 
	C701.099915,34.941818 703.358643,32.516129 708.372437,32.481880 
	C725.192932,32.366978 742.053406,31.757448 758.824402,32.681934 
	C773.182129,33.473392 784.012939,41.432446 789.533813,54.735058 
	C792.422852,61.696064 792.729858,69.633385 789.984070,77.576691 
	C788.641235,79.300140 788.748840,81.342690 787.337036,82.975266 
	C787.179077,83.663429 787.161499,84.048630 787.027710,84.699547 
	C784.485291,87.247375 783.404968,90.675270 780.234009,92.759476 
	C779.994263,92.991379 780.039124,92.997299 780.041565,93.019760 
	C777.781006,95.229973 774.960022,96.621971 772.132446,98.585915 
	C771.857239,98.774811 771.843994,98.840645 771.812134,98.851135 
	C771.399170,99.388153 771.215515,99.934158 771.868713,100.714386 
	C778.965210,102.020355 781.592163,107.696854 784.636658,112.758820 
	C787.617126,117.714409 787.787170,123.303185 787.814148,128.969818 
	C787.849121,136.330338 788.386780,143.524200 794.414734,149.214966 
	C796.796936,151.464035 796.783875,155.574982 794.260559,157.869537 
	C792.263916,159.685196 789.183777,159.530396 786.559509,157.370361 
	C784.633911,155.785477 782.316711,154.729553 781.945801,151.524689 
	C781.530090,150.391800 780.714783,150.094696 780.006836,149.261261 
	C779.763062,148.369583 779.665527,147.743973 779.584106,146.801498 
	C778.658997,144.582291 778.164612,142.522522 777.267395,140.255035 
	C776.492126,132.511856 776.654846,124.958595 774.304260,117.693474 
	C773.008240,113.687645 770.003357,111.215157 766.478394,108.718521 
	C765.036865,108.029541 764.183411,107.143486 762.903442,106.365791 
	C761.324707,106.229965 760.042053,106.162437 758.378906,106.029533 
	C743.596497,104.238647 729.169373,104.838585 714.384033,105.771957 
z"/>
<path fill="#955FFF" opacity="1.000000" stroke="none" 
	d="
M269.352112,132.959641 
	C268.228790,136.061234 266.110168,138.139252 264.157379,140.723877 
	C263.303314,141.581390 262.995514,142.427063 262.077393,143.167511 
	C261.654175,143.694183 261.534332,144.100952 261.226105,144.764618 
	C258.365417,147.431229 256.912079,150.803986 254.181580,153.582794 
	C253.696014,154.344833 253.469345,154.896362 253.107758,155.718109 
	C252.499191,156.485321 252.000595,156.954819 251.166183,157.558868 
	C250.739182,158.069977 250.597031,158.390305 250.227203,158.854340 
	C248.693283,160.064789 247.291489,160.327164 245.398178,159.223785 
	C245.035889,158.946014 245.101624,158.817917 245.118378,158.747894 
	C244.550247,158.349823 244.021423,157.948914 243.341400,157.209961 
	C241.158859,151.121323 245.988739,147.860687 248.568054,144.154861 
	C257.879669,130.776398 267.805756,117.826965 277.375275,104.625298 
	C278.883331,102.544861 281.292786,101.276741 282.190125,98.662094 
	C283.719879,94.204712 280.498901,91.194870 278.414490,88.498055 
	C267.169617,73.949493 256.369110,59.087952 245.720337,43.699272 
	C245.387390,42.006763 244.049454,41.499199 243.183258,40.243065 
	C242.459488,37.190639 242.063766,34.332661 245.508987,32.960468 
	C248.906189,31.607416 251.421875,32.582798 253.645767,35.603333 
	C264.864990,50.841480 276.259857,65.950188 287.529388,81.151543 
	C291.156250,86.043808 291.067383,86.109703 295.828247,80.283997 
	C298.366028,78.822029 299.215454,76.457474 300.758057,74.222000 
	C300.979126,73.974823 301.001221,73.997597 300.988403,73.990250 
	C301.530762,73.472824 302.068909,72.945175 302.805389,72.216141 
	C303.161804,71.462997 303.310486,70.901505 303.649872,70.120964 
	C306.728729,67.630447 308.117279,64.160339 310.785400,61.285198 
	C311.095001,60.618095 311.160950,60.184032 311.361176,59.449474 
	C312.040924,58.161030 312.854980,57.381718 313.789734,56.276176 
	C314.032471,56.044712 313.994965,56.008839 314.018494,56.018433 
	C314.878723,55.112946 315.787262,54.264004 316.683472,53.005932 
	C316.842194,52.337280 316.878601,51.953812 317.084442,51.334694 
	C319.098663,49.888248 320.031921,47.856102 321.694427,46.056992 
	C321.848785,45.772030 321.913971,45.386040 321.980530,45.201973 
	C322.519592,44.511215 323.007263,44.019962 323.792053,43.338730 
	C324.217438,42.544998 324.376282,41.972252 324.737274,41.182137 
	C327.791412,38.697483 328.739380,34.632122 332.686890,32.972580 
	C333.448303,32.813492 333.890991,32.780170 334.663849,32.795902 
	C339.295319,35.407219 338.495636,38.799595 336.283478,42.713757 
	C331.848541,50.957146 325.782257,57.532001 320.665527,64.775414 
	C314.043579,74.149612 307.284973,83.431297 300.387390,92.604042 
	C298.592316,94.991173 298.435486,96.363167 300.381531,98.952667 
	C312.638397,115.262085 324.589691,131.800858 336.677216,148.237915 
	C341.000000,154.116196 340.058655,158.158249 334.069855,159.433304 
	C331.320160,160.018707 329.676422,158.457993 328.292664,156.698227 
	C323.590942,150.719025 318.799072,144.786423 314.494812,138.524506 
	C307.709808,128.653458 300.609039,119.026642 293.211060,109.191597 
	C290.445679,106.482895 288.422729,107.248596 286.692719,110.049286 
	C285.745361,111.582947 284.758423,113.113480 283.104431,114.511368 
	C282.714539,115.034088 282.608276,115.379013 282.355530,115.952316 
	C279.996338,117.450806 279.257996,119.986252 277.383484,121.961716 
	C277.200928,122.654518 277.145386,123.041237 277.048248,123.718124 
	C275.259827,125.659012 274.048035,127.754501 272.185394,129.728088 
	C271.940186,129.943405 271.890961,129.919998 271.866699,129.907593 
	C271.152863,130.908676 270.210388,131.706940 269.352112,132.959641 
z"/>
<path fill="#935CFF" opacity="1.000000" stroke="none" 
	d="
M196.044891,103.485176 
	C195.061996,103.714478 194.373978,103.802513 193.343170,103.946350 
	C190.695206,105.171349 188.044876,104.976128 185.339203,105.966232 
	C173.408249,106.080353 161.802856,106.207176 150.202667,106.017319 
	C146.661331,105.959366 145.708313,107.154411 145.738129,110.578705 
	C145.866623,125.329407 145.739197,140.082321 145.648926,155.281281 
	C145.138458,156.840591 144.306244,157.634583 143.080002,158.522034 
	C141.505615,158.732025 140.233078,158.770874 138.579758,158.769714 
	C137.080154,158.191833 136.347626,157.222656 135.396576,156.076233 
	C135.196075,118.778030 135.129791,81.747032 135.078476,44.716011 
	C135.074570,41.894512 135.176651,39.072861 135.292603,35.810898 
	C135.433899,33.957607 136.892593,34.154018 137.825958,33.254570 
	C154.403854,33.016190 170.741241,32.980965 187.548325,32.940006 
	C189.754990,33.728043 191.811249,33.440697 193.721893,34.781532 
	C203.564285,36.913834 209.503525,43.405380 213.877930,51.436295 
	C215.784973,54.937424 217.605148,58.796101 216.956848,63.561890 
	C218.660934,67.329994 218.102249,70.770493 217.235962,74.601105 
	C216.107559,86.100571 210.273270,94.252007 201.321075,100.861191 
	C200.674438,101.300125 200.326935,101.582085 199.622559,101.927658 
	C198.246506,102.310570 197.194351,102.600891 196.044891,103.485176 
z"/>
<path fill="#945EFF" opacity="1.000000" stroke="none" 
	d="
M673.931641,103.612556 
	C672.959167,103.722481 672.293640,103.775711 671.298584,103.884941 
	C669.820740,105.238617 668.104187,105.209488 666.319214,105.877373 
	C652.344177,106.039665 638.699036,106.115547 624.605835,106.289284 
	C622.407471,107.980675 623.035156,110.100433 623.026245,112.011749 
	C622.968140,124.443420 623.013184,136.875534 622.980408,149.307388 
	C622.975159,151.277039 623.305359,153.293182 622.197754,155.575714 
	C621.129883,159.446442 618.348755,158.990829 615.925171,158.770157 
	C613.336670,158.534470 611.921387,156.664703 611.344421,154.277740 
	C611.077148,153.172043 611.229919,151.959473 611.229675,150.795349 
	C611.221741,114.185555 611.213501,77.575768 611.219116,40.965973 
	C611.220032,34.897617 613.278137,32.547554 619.387329,32.486214 
	C633.364319,32.345879 647.375854,31.866264 661.313538,32.624466 
	C675.689758,33.406525 686.544922,41.168095 691.943542,54.329830 
	C698.126709,69.404449 694.165466,90.766960 677.387817,100.993805 
	C676.074097,101.867073 675.215454,102.778069 673.931641,103.612556 
z"/>
<path fill="#935DFF" opacity="1.000000" stroke="none" 
	d="
M356.561279,45.771122 
	C356.235260,59.399723 356.203918,72.669479 356.223053,86.395462 
	C357.929565,88.683929 360.130829,88.511406 362.297791,88.512375 
	C376.274506,88.518623 390.251251,88.495354 404.227905,88.529411 
	C406.529449,88.535019 408.916321,88.163757 411.320679,89.914032 
	C411.618225,90.279259 411.688141,90.302650 411.707092,90.334290 
	C414.560791,96.131470 412.592743,99.368561 405.911072,99.433189 
	C391.496338,99.572617 377.079803,99.442085 362.664276,99.508736 
	C360.729889,99.517677 358.651154,98.983734 356.647675,100.811348 
	C356.288940,115.631355 356.323792,130.093811 356.075897,144.551407 
	C356.008026,148.509903 358.277252,148.212219 360.879944,148.209045 
	C379.171844,148.186752 397.463837,148.207809 415.755798,148.220642 
	C416.420135,148.221100 417.084381,148.279831 418.192444,148.340042 
	C420.039948,148.627457 420.632446,149.874863 421.573303,151.065018 
	C421.640320,152.570374 421.667603,153.756958 421.678528,155.299896 
	C421.360535,157.003250 420.165527,157.616562 419.022705,158.630386 
	C395.525116,158.777924 372.320526,158.808472 348.660675,158.822830 
	C345.279510,157.326172 344.524292,154.708572 344.522614,151.717865 
	C344.501801,114.407532 344.495331,77.097198 344.526093,39.786869 
	C344.528412,36.977863 345.106628,34.458447 348.509491,33.029770 
	C371.332703,32.846619 393.710541,32.868557 416.558655,32.885536 
	C417.975616,33.296764 418.755981,33.952538 419.706482,34.867100 
	C419.882782,35.117092 419.998779,35.000000 419.941589,35.058556 
	C420.928070,35.653534 420.938477,36.843391 421.624878,37.967426 
	C421.719543,38.576866 421.709534,38.900299 421.716309,39.466881 
	C420.026093,43.705391 416.718750,44.521076 412.786072,44.508556 
	C396.054352,44.455284 379.322235,44.459370 362.590454,44.514378 
	C360.660797,44.520721 358.582001,43.953331 356.561279,45.771122 
z"/>
<path fill="#945EFF" opacity="1.000000" stroke="none" 
	d="
M490.971313,158.901688 
	C473.148254,158.905228 455.819061,158.904480 438.489899,158.893433 
	C430.963196,158.888626 429.511749,157.443787 429.512268,149.341995 
	C429.513855,124.702042 429.622986,100.062096 429.642487,75.422119 
	C429.651337,64.264221 429.540405,53.106258 429.500641,41.948261 
	C429.492950,39.793041 429.173462,37.392639 430.689484,35.726337 
	C432.285889,33.971661 434.039154,31.983225 437.009094,32.761097 
	C440.664215,33.718422 441.433105,36.924572 442.468414,39.808559 
	C442.893860,40.993595 442.575775,42.449791 442.575867,43.782642 
	C442.578125,76.611504 442.680359,109.441032 442.466217,142.268494 
	C442.434326,147.154633 443.864777,148.384277 448.623657,148.301208 
	C465.116333,148.013275 481.618011,148.284256 498.114380,148.135361 
	C502.133972,148.099091 504.940460,149.417984 505.659851,153.365555 
	C506.231964,156.505066 502.703217,158.844040 497.963806,158.892380 
	C495.797821,158.914474 493.631439,158.894257 490.971313,158.901688 
z"/>
<path fill="#9864FF" opacity="1.000000" stroke="none" 
	d="
M226.585449,34.926338 
	C227.997482,32.035320 230.185577,32.080166 232.348831,32.722172 
	C235.414459,33.631962 236.366348,36.480904 237.378632,39.073929 
	C237.778122,40.097210 237.558899,41.376419 237.559097,42.539108 
	C237.565094,78.176102 237.559143,113.813095 237.572174,149.450089 
	C237.573029,151.806824 237.054031,153.822449 235.858612,156.009384 
	C234.191406,159.059402 231.794571,159.321487 229.226608,158.750519 
	C226.470413,158.137726 224.996719,155.922653 224.839874,153.040192 
	C224.749512,151.379288 224.788940,149.710709 224.788879,148.045593 
	C224.787430,112.741653 224.765930,77.437668 224.840942,42.133888 
	C224.845901,39.795212 223.816055,37.077816 226.585449,34.926338 
z"/>
<path fill="#9863FF" opacity="1.000000" stroke="none" 
	d="
M547.000000,187.863831 
	C533.688782,187.864975 520.876282,187.759323 508.067352,187.927460 
	C504.046326,187.980240 501.441040,186.114517 501.431915,182.534363 
	C501.423187,179.103699 504.154236,177.283447 507.876068,177.288940 
	C536.827881,177.331665 565.779785,177.301834 594.731628,177.326431 
	C598.398743,177.329544 600.725769,179.010468 600.809265,182.938080 
	C600.895264,186.980377 598.375549,187.889587 594.918213,187.879898 
	C579.112244,187.835602 563.306091,187.861862 547.000000,187.863831 
z"/>
<path fill="#D7C3FF" opacity="1.000000" stroke="none" 
	d="
M348.724213,32.590393 
	C344.929230,35.875263 345.819489,40.278412 345.817627,44.403423 
	C345.801544,79.874367 345.813354,115.345306 345.801483,150.816254 
	C345.800568,153.465607 345.482788,156.172592 348.065216,158.449982 
	C343.234619,158.370377 342.984039,154.745590 342.982391,151.006500 
	C342.970886,124.848511 342.975037,98.690514 342.975586,72.532524 
	C342.975800,61.536175 342.988037,50.539822 342.976837,39.543484 
	C342.972961,35.713020 344.078156,32.774796 348.724213,32.590393 
z"/>
<path fill="#545454" opacity="1.000000" stroke="none" 
	d="
M553.725708,212.412704 
	C553.528381,210.789215 553.494812,209.368500 555.416382,209.405579 
	C556.590393,209.428223 557.679810,209.687561 558.209656,210.998581 
	C560.075256,215.614120 562.422058,220.096329 563.686401,224.867584 
	C564.304626,227.200653 566.822510,228.343399 566.558228,230.833725 
	C566.400574,232.318726 567.841919,234.415817 565.568542,235.135696 
	C563.711365,235.723801 562.514282,234.188446 561.784119,232.657532 
	C561.112732,231.249786 561.219482,229.203156 558.382446,229.626984 
	C556.592896,228.396561 555.102417,228.044128 553.233643,229.376312 
	C552.571960,229.560272 552.166687,229.566666 551.512573,229.394516 
	C551.056030,229.051163 550.861755,228.872452 550.680481,228.679947 
	C550.504150,228.492645 550.562012,228.562347 551.033203,229.088577 
	C550.889648,229.839645 550.699890,230.598450 550.220703,230.905731 
	C548.433533,232.051575 549.057312,236.905350 545.676331,234.860809 
	C543.357727,233.458679 545.537781,230.283875 546.043457,227.976135 
	C546.303589,226.788757 547.312012,225.765350 548.112671,224.332550 
	C549.129822,221.637650 550.849243,222.479431 552.792114,223.008865 
	C554.309082,223.405518 555.678711,224.171890 556.509155,222.744919 
	C557.158936,221.628494 555.967163,220.755310 555.414551,219.471771 
	C555.211548,218.695114 555.201477,218.238754 555.342041,217.451294 
	C556.679321,215.050644 555.163391,213.916779 553.725708,212.412704 
z"/>
<path fill="#D7C3FF" opacity="1.000000" stroke="none" 
	d="
M356.711823,46.073578 
	C355.537872,42.378220 358.279694,43.093788 360.297668,43.090141 
	C377.544220,43.058975 394.791260,43.012257 412.037201,43.118114 
	C415.524078,43.139511 418.769379,43.111973 421.359009,39.809986 
	C421.358154,43.854988 418.611786,45.899876 413.001678,45.913631 
	C395.383270,45.956833 377.764679,45.928635 360.146179,45.934071 
	C359.149811,45.934380 358.153412,45.988251 356.711823,46.073578 
z"/>
<path fill="#D7C3FF" opacity="1.000000" stroke="none" 
	d="
M356.799988,101.129730 
	C356.135803,97.131409 359.220459,98.258247 361.246368,98.246834 
	C376.168884,98.162811 391.092072,98.219131 406.014984,98.190666 
	C411.939850,98.179367 412.857269,97.001541 411.772339,90.706123 
	C415.913330,91.234703 414.098297,94.645554 413.789001,96.626854 
	C413.325409,99.596481 410.683380,100.995277 407.591827,101.002945 
	C399.781189,101.022308 391.970490,101.011871 384.159821,101.024818 
	C375.186340,101.039688 366.212860,101.066887 356.799988,101.129730 
z"/>
<path fill="#D7C3FF" opacity="1.000000" stroke="none" 
	d="
M411.689636,89.872246 
	C395.003693,89.407578 378.376831,90.118576 361.757202,89.893028 
	C359.630585,89.864166 357.306396,90.356483 356.294495,87.237991 
	C372.874969,86.921478 389.476746,86.954796 406.077454,87.106949 
	C408.163727,87.126068 410.990479,86.007233 411.689636,89.872246 
z"/>
<path fill="#494949" opacity="1.000000" stroke="none" 
	d="
M468.667175,231.760162 
	C468.845978,233.234619 470.061371,235.022278 467.270355,234.896240 
	C466.592834,234.485413 466.116089,234.167221 465.224548,234.309723 
	C459.503540,230.276749 457.382904,223.220474 451.279449,219.570526 
	C449.433899,217.437576 451.285339,216.011841 452.708069,214.165741 
	C457.576111,215.320602 458.084473,220.325699 461.177032,223.371490 
	C462.521240,225.593231 464.841736,225.410461 466.920349,226.542023 
	C468.449219,228.104019 467.587524,230.016068 468.667175,231.760162 
z"/>
<path fill="#6B6B6B" opacity="1.000000" stroke="none" 
	d="
M693.237305,234.694946 
	C691.066162,235.369186 690.210754,234.505341 690.209961,232.627472 
	C690.207092,226.037689 690.169373,219.447800 690.199524,212.858200 
	C690.212830,209.936417 691.959900,208.807953 694.683716,208.833649 
	C698.142639,208.866287 701.601501,208.896393 705.520874,209.006531 
	C707.104187,210.347580 707.271851,211.755157 706.331848,213.634781 
	C703.009033,214.062973 699.975586,214.143738 696.492981,214.158844 
	C694.929443,213.212494 694.234009,213.541931 694.064270,214.880020 
	C693.877686,216.351074 694.024597,217.843872 693.870117,219.671112 
	C693.271057,221.662766 693.604370,223.280975 693.973816,225.276245 
	C694.038635,227.497772 693.867615,229.351257 694.239990,231.594925 
	C694.223328,232.863861 693.992798,233.656235 693.237305,234.694946 
z"/>
<path fill="#6B6B6B" opacity="1.000000" stroke="none" 
	d="
M596.261353,234.605743 
	C592.713562,234.918976 593.050171,232.308319 592.987427,230.323853 
	C592.831055,225.380112 592.973938,220.427673 592.903992,215.480057 
	C592.867126,212.870483 593.071899,210.087341 595.843750,209.291183 
	C598.917175,208.408386 599.242249,211.749481 600.565186,213.815125 
	C598.069702,214.603806 596.859131,215.561264 597.017090,218.620697 
	C597.235474,222.851074 597.075378,227.139450 596.983521,231.767120 
	C596.958984,232.887070 596.888733,233.630371 596.261353,234.605743 
z"/>
<path fill="#2E2E2E" opacity="1.000000" stroke="none" 
	d="
M514.397461,233.204910 
	C513.973145,232.838409 513.933777,232.677643 513.925415,232.515289 
	C513.524902,224.685913 513.525146,224.685898 505.429840,224.521332 
	C502.624420,224.660767 502.434937,226.400909 502.305725,228.249786 
	C502.151245,230.459274 502.372711,232.797531 500.258850,234.780487 
	C497.088257,235.248230 498.061920,232.906586 498.034882,231.614502 
	C497.904724,225.399139 497.985718,219.179352 498.068298,212.500519 
	C500.922821,209.110321 501.296844,212.096252 502.015564,213.709366 
	C503.080292,216.098969 501.060577,219.683762 504.803894,221.044449 
	C507.401703,221.988739 510.075348,221.490387 512.725342,221.291748 
	C513.395752,221.241501 514.054138,221.310226 515.071411,221.695679 
	C517.917297,225.003250 517.674377,228.483734 516.642700,232.435577 
	C515.970032,233.272217 515.428406,233.466568 514.397461,233.204910 
z"/>
<path fill="#494949" opacity="1.000000" stroke="none" 
	d="
M292.642975,221.902985 
	C292.751007,220.951202 292.786713,220.291855 292.921204,219.315155 
	C293.502289,217.793152 294.378693,216.973740 295.896179,216.339294 
	C296.759552,216.238113 297.245605,216.316818 298.014526,216.709869 
	C298.730286,217.574615 298.855560,218.284561 298.716919,219.386627 
	C297.233765,222.095795 298.578186,222.800629 300.986755,223.194138 
	C301.758911,223.564621 302.114929,223.894608 302.548157,224.640579 
	C302.756165,225.484177 302.740173,225.976471 302.455994,226.792725 
	C300.339569,228.804596 297.580719,227.784515 295.229156,229.325378 
	C292.866058,229.488800 292.950470,231.208023 292.339081,232.493103 
	C291.649200,233.943192 290.685394,235.761902 288.671844,234.919861 
	C286.571136,234.041367 287.867218,232.024902 287.858582,230.516815 
	C287.847656,228.604660 290.387909,227.888931 290.361450,225.481537 
	C291.000977,224.027695 291.864166,223.167908 292.642975,221.902985 
z"/>
<path fill="#B088FF" opacity="1.000000" stroke="none" 
	d="
M711.498535,157.075409 
	C712.842834,141.937241 711.609802,126.643280 712.003479,111.380516 
	C712.040344,109.951515 711.479614,108.341240 713.266602,107.049026 
	C713.707458,122.453362 713.791077,138.002106 713.875854,153.550842 
	C713.884216,155.086319 713.878296,156.609070 711.498535,157.075409 
z"/>
<path fill="#DDCBFF" opacity="1.000000" stroke="none" 
	d="
M622.310791,155.876129 
	C621.901855,140.813431 621.871094,125.677971 621.935486,110.542915 
	C621.941772,109.067192 621.048767,107.095200 623.741638,106.332336 
	C624.114075,121.043907 624.109741,135.701019 623.976868,150.356979 
	C623.960327,152.189117 624.957886,154.422699 622.310791,155.876129 
z"/>
<path fill="#3A3A3A" opacity="1.000000" stroke="none" 
	d="
M407.246887,234.801819 
	C404.003052,235.922974 403.316437,234.308594 403.338989,231.726089 
	C403.393280,225.508148 403.364441,219.289474 403.463318,212.623993 
	C407.514008,209.262299 408.252411,209.404922 409.293823,213.714264 
	C409.085419,214.103348 409.138733,214.113007 409.138672,214.140106 
	C405.546906,216.783737 408.994415,219.025696 409.611511,221.764435 
	C409.749847,222.575638 409.729370,223.042068 409.490906,223.823517 
	C406.241516,226.511948 407.962921,229.611618 408.060150,232.829010 
	C407.933014,233.666931 407.742065,234.107635 407.246887,234.801819 
z"/>
<path fill="#B088FF" opacity="1.000000" stroke="none" 
	d="
M714.492859,106.061142 
	C714.088318,104.265282 715.257629,103.962677 716.727783,103.965286 
	C729.761169,103.988411 742.794495,103.993629 755.827881,104.014832 
	C756.690796,104.016235 757.435913,104.307091 757.910645,105.567917 
	C754.953369,107.869759 751.863708,105.935944 748.792236,105.993637 
	C737.518066,106.205429 726.237427,106.075356 714.492859,106.061142 
z"/>
<path fill="#737373" opacity="1.000000" stroke="none" 
	d="
M515.806030,233.390549 
	C515.970642,229.699097 517.039612,226.189423 514.946350,222.596710 
	C514.781494,221.957123 514.654907,221.726059 514.497498,221.100540 
	C515.415100,218.163925 514.724792,215.468079 515.375977,212.519287 
	C516.158813,211.486465 516.907471,211.358032 518.057922,211.847382 
	C520.178528,219.171127 519.151855,226.301132 518.876343,233.411606 
	C518.825806,234.715134 517.775818,234.858963 516.412964,235.061798 
	C515.665405,234.679031 515.516724,234.218399 515.806030,233.390549 
z"/>
<path fill="#989898" opacity="1.000000" stroke="none" 
	d="
M338.269318,234.562653 
	C335.341583,236.236969 335.249786,234.352539 335.237488,232.608261 
	C335.190765,225.976135 335.227661,219.343460 335.189697,212.711227 
	C335.177490,210.577072 336.092163,209.229050 338.205872,208.842651 
	C340.390961,208.443222 340.723938,209.797256 340.411163,211.760162 
	C338.423065,213.533249 339.110474,215.635147 339.012878,217.530502 
	C338.727020,223.080811 339.516602,228.662750 338.269318,234.562653 
z"/>
<path fill="#989898" opacity="1.000000" stroke="none" 
	d="
M611.542847,212.467102 
	C611.121216,210.617828 610.923706,209.035034 613.236511,209.087067 
	C614.973022,209.126099 616.209473,210.157547 616.351135,211.738602 
	C617.001038,218.988678 616.808838,226.260941 616.460388,233.520798 
	C616.384766,235.095383 614.882935,234.906647 613.333862,234.952438 
	C611.300354,232.604675 612.904114,230.132599 612.603027,227.343430 
	C612.261414,222.221817 613.414551,217.417892 611.542847,212.467102 
z"/>
<path fill="#626262" opacity="1.000000" stroke="none" 
	d="
M643.197632,220.221909 
	C642.179871,217.938248 643.006165,216.524216 645.019165,215.285431 
	C646.166016,214.714050 646.717651,215.268677 647.377197,216.136841 
	C647.512329,216.788040 647.550781,217.172653 647.802612,217.781525 
	C648.055176,220.641357 648.131042,223.273132 648.205078,226.341492 
	C648.905334,228.756805 651.702881,229.224976 651.685791,232.040451 
	C651.523315,232.615631 651.414490,232.833862 651.015137,233.279739 
	C649.999451,233.798447 649.279114,233.794266 648.264404,233.249023 
	C644.908875,231.455933 642.593262,229.361954 642.823242,225.280426 
	C644.377075,223.601669 644.262573,222.056610 643.197632,220.221909 
z"/>
<path fill="#7D7D7D" opacity="1.000000" stroke="none" 
	d="
M755.627319,232.856689 
	C756.215088,235.360611 754.784485,235.468704 753.145081,235.492767 
	C751.676514,235.514313 750.710388,235.208069 750.207275,233.566956 
	C749.638123,231.710510 748.911072,229.786346 747.768982,228.251602 
	C746.393555,226.403290 744.117065,227.151978 742.225952,227.378143 
	C740.245972,227.614944 740.560852,229.386948 740.260681,230.824402 
	C739.950073,232.312210 741.455200,234.659637 738.284119,234.954346 
	C737.270996,234.136047 736.730896,233.306412 736.278625,231.981842 
	C736.024414,230.613281 736.004700,229.609512 736.416382,228.271042 
	C737.676575,226.900040 738.864258,225.963379 740.080688,224.516800 
	C742.446472,223.465454 744.541748,223.573105 747.024902,224.044037 
	C748.566284,224.635147 749.531738,225.444809 750.850464,226.356354 
	C752.571045,227.874680 751.255005,230.255463 753.346802,231.525269 
	C754.296021,231.862289 754.897949,232.151474 755.627319,232.856689 
z"/>
<path fill="#737373" opacity="1.000000" stroke="none" 
	d="
M409.533661,214.177399 
	C409.158234,209.457428 406.319427,211.650040 403.902100,212.110062 
	C403.288239,210.516830 403.476105,209.075592 405.577789,209.002487 
	C409.560852,208.863968 413.546814,208.796860 417.532135,208.740753 
	C419.490112,208.713181 419.422150,210.175400 419.485474,211.531784 
	C419.553986,212.999130 419.362030,214.228699 417.468231,214.226562 
	C414.972778,214.223724 412.477356,214.242172 409.533661,214.177399 
z"/>
<path fill="#6B6B6B" opacity="1.000000" stroke="none" 
	d="
M515.135498,220.707947 
	C514.987427,221.240265 514.981689,221.429932 514.942017,221.903900 
	C513.304749,222.445175 511.709656,222.837463 510.096619,222.936142 
	C502.376648,223.408417 501.240936,222.354523 500.684479,214.696350 
	C500.595245,213.468475 501.383789,211.408539 498.441406,211.920410 
	C498.046478,211.028152 498.013824,209.834335 498.906403,209.331970 
	C500.131836,208.642227 500.429626,209.871262 500.987183,210.701141 
	C501.882233,212.033173 503.344666,212.979568 503.008026,214.957901 
	C502.318909,219.007446 504.654114,219.805817 508.014893,219.472504 
	C509.661194,219.309235 511.320038,219.272629 513.403198,219.006378 
	C514.631165,219.045944 515.046326,219.618973 515.135498,220.707947 
z"/>
<path fill="#252525" opacity="1.000000" stroke="none" 
	d="
M748.265991,224.726959 
	C745.663757,224.227997 743.249451,224.562347 740.416992,224.792389 
	C739.252869,225.762375 738.417664,226.512222 737.676758,227.768921 
	C737.411377,229.133743 737.303284,230.204041 737.197144,231.681259 
	C737.085266,232.423584 736.893799,232.708176 736.412964,233.086151 
	C736.017090,233.242859 735.844116,233.262726 735.458740,233.130463 
	C734.273376,226.309143 735.068726,219.602554 734.905518,212.455338 
	C735.553467,211.408661 736.253052,211.099945 737.435425,210.971771 
	C738.890320,211.082825 739.821777,211.435776 740.445557,212.809601 
	C740.477539,213.414856 740.435181,213.655106 740.201477,214.200226 
	C738.191650,216.679337 736.639771,218.834625 740.816895,220.602753 
	C743.334045,220.675980 745.518127,220.421310 747.907349,221.601746 
	C748.743469,222.652496 748.802917,223.492538 748.265991,224.726959 
z"/>
<path fill="#7D7D7D" opacity="1.000000" stroke="none" 
	d="
M467.281616,226.575104 
	C464.634521,227.083679 462.232910,227.382278 461.157928,224.112885 
	C464.084167,224.591980 463.569550,222.373230 463.651337,220.880478 
	C463.813110,217.927353 463.739014,214.959167 463.964386,212.012650 
	C464.061554,210.741928 464.466888,209.462662 466.266846,209.317993 
	C467.856018,209.190262 468.845581,209.523041 468.951172,211.639923 
	C466.699829,216.590363 468.988190,221.603714 467.281616,226.575104 
z"/>
<path fill="#494949" opacity="1.000000" stroke="none" 
	d="
M647.152588,216.965790 
	C646.547241,216.198593 646.118591,215.729034 645.469360,215.167206 
	C645.839050,212.796158 647.415527,211.625198 650.003174,211.168732 
	C653.579895,209.584579 656.943909,210.529907 660.545532,210.806198 
	C661.409363,212.277817 663.960022,210.940002 663.636536,213.059341 
	C663.343445,214.979858 661.531799,214.259033 660.368469,214.321121 
	C657.399719,214.479523 654.419678,214.426254 650.987244,214.659134 
	C650.302856,215.427643 649.958679,215.904770 649.192749,216.404419 
	C648.785034,216.661362 648.638306,216.771957 648.217651,216.913483 
	C647.738953,217.050720 647.534119,217.157059 647.152588,216.965790 
z"/>
<path fill="#252525" opacity="1.000000" stroke="none" 
	d="
M596.350342,232.173248 
	C595.953369,226.785934 595.894836,221.637375 595.661316,216.496750 
	C595.592651,214.985504 595.066284,213.212479 596.399658,212.328476 
	C598.179565,211.148422 598.165283,214.486801 600.212097,214.166122 
	C602.026978,216.490463 603.488953,218.821976 605.036377,221.495911 
	C605.387085,222.224762 605.542664,222.649536 605.476929,223.447937 
	C605.223572,223.935852 605.063599,224.094940 604.570312,224.292175 
	C603.336487,223.716049 602.524109,222.979416 601.384460,222.161865 
	C600.963867,221.261124 600.743958,220.616806 600.388367,219.652802 
	C599.610840,219.106812 599.005249,219.109833 598.299927,219.882660 
	C598.112732,223.795547 598.104065,227.438721 598.008789,231.531921 
	C597.559875,232.339798 597.126404,232.484070 596.350342,232.173248 
z"/>
<path fill="#252525" opacity="1.000000" stroke="none" 
	d="
M452.967163,213.600555 
	C453.815460,216.305374 450.570404,216.913681 450.866943,219.406342 
	C450.885162,224.210602 450.881042,228.644745 450.814941,233.077957 
	C450.800812,234.026352 450.758026,235.189026 449.314453,235.048935 
	C447.896271,234.911285 448.239349,233.679626 448.115753,232.370087 
	C447.109100,226.664719 447.618652,221.336990 447.965881,215.635803 
	C448.074707,213.663589 447.242554,211.470551 449.027771,210.829330 
	C450.425079,210.327484 451.944672,211.859940 452.967163,213.600555 
z"/>
<path fill="#737373" opacity="1.000000" stroke="none" 
	d="
M694.939575,218.921448 
	C697.656250,219.818954 700.198181,219.228348 702.663696,219.374557 
	C704.670532,219.493546 705.662781,220.255447 705.736267,222.366913 
	C705.813416,224.584595 704.399231,224.744629 702.830322,224.801407 
	C700.671143,224.879562 698.510071,224.904922 695.926025,225.002518 
	C695.247375,225.028549 694.992493,225.004959 694.513367,224.667572 
	C693.792358,223.112198 693.779663,221.835938 694.112061,220.165314 
	C694.340576,219.565765 694.472778,219.342743 694.939575,218.921448 
z"/>
<path fill="#989898" opacity="1.000000" stroke="none" 
	d="
M651.178833,232.893326 
	C652.230042,229.502228 647.040344,230.391098 648.113953,227.150757 
	C651.772278,229.781448 655.667725,231.088501 660.359070,229.624313 
	C661.525452,229.260269 663.730042,228.896042 663.744934,231.118454 
	C663.754944,232.607101 665.314087,235.474411 661.309448,235.127502 
	C658.070740,232.769012 654.290405,235.300522 651.178833,232.893326 
z"/>
<path fill="#C8ADFF" opacity="1.000000" stroke="none" 
	d="
M867.164185,32.152672 
	C860.432373,33.323658 853.540283,32.748058 846.180664,32.668465 
	C846.097595,31.633820 846.240601,30.325506 847.401062,30.270407 
	C853.697693,29.971443 860.007446,29.489426 866.279175,30.556252 
	C866.589355,30.608999 866.778931,31.370527 867.164185,32.152672 
z"/>
<path fill="#8E8E8E" opacity="1.000000" stroke="none" 
	d="
M409.245636,222.244720 
	C408.217133,219.423294 403.197479,217.135254 408.773499,214.132629 
	C408.069977,217.966782 409.271545,219.705276 413.423279,219.242874 
	C415.133026,219.052460 417.380157,218.657379 418.414795,220.371628 
	C419.537964,222.232651 420.189453,224.618149 416.173340,224.633148 
	C414.059235,222.825989 411.430817,223.715591 409.245636,222.244720 
z"/>
<path fill="#626262" opacity="1.000000" stroke="none" 
	d="
M295.369690,229.634018 
	C295.597809,225.062836 299.136658,227.711212 301.720886,226.907166 
	C303.263733,226.058548 304.268036,226.932495 305.639282,227.122681 
	C306.603516,227.204788 307.234375,227.303940 308.015503,227.851074 
	C308.622589,229.793335 308.851959,231.559692 309.502411,233.154282 
	C309.970642,234.302094 309.338745,234.702271 308.692657,234.982330 
	C307.600159,235.455887 306.818512,235.124115 306.977600,233.344208 
	C305.933990,232.001755 304.136627,232.098145 303.372375,230.249329 
	C300.798126,229.885178 298.307373,229.823807 295.369690,229.634018 
z"/>
<path fill="#494949" opacity="1.000000" stroke="none" 
	d="
M447.979797,215.528778 
	C449.585846,220.566162 448.783936,225.947495 448.402100,231.632019 
	C446.910248,226.595963 447.465912,221.197388 447.979797,215.528778 
z"/>
<path fill="#6B6B6B" opacity="1.000000" stroke="none" 
	d="
M740.471924,214.408722 
	C739.990967,213.139420 739.740906,212.233261 738.262085,211.824707 
	C737.359253,211.086990 737.299866,210.389465 737.760498,209.346420 
	C741.039001,209.011566 744.086060,208.965637 747.576172,209.037476 
	C748.723206,209.765869 748.958923,210.584885 749.034302,211.906845 
	C748.917603,212.931168 748.707947,213.476349 748.061218,214.277100 
	C745.441895,215.606613 743.136292,215.611633 740.471924,214.408722 
z"/>
<path fill="#080808" opacity="1.000000" stroke="none" 
	d="
M338.449707,234.993958 
	C337.915039,228.535797 337.768677,222.140930 337.778229,215.746292 
	C337.780365,214.307724 336.911621,212.317307 339.772522,211.852203 
	C340.258972,218.277802 340.370422,224.554672 340.252319,230.827225 
	C340.225494,232.250748 341.141907,234.243790 338.449707,234.993958 
z"/>
<path fill="#BBBBBB" opacity="1.000000" stroke="none" 
	d="
M695.126770,230.105103 
	C699.469788,230.431976 703.693665,228.658493 707.317505,231.949661 
	C709.786377,234.191849 709.511047,235.028687 706.178955,235.176056 
	C704.148315,233.454453 701.970215,234.139786 699.928955,234.003830 
	C698.179016,233.887268 696.340149,234.189590 694.778381,232.283234 
	C694.436523,231.349396 694.493164,230.799072 695.126770,230.105103 
z"/>
<path fill="#494949" opacity="1.000000" stroke="none" 
	d="
M611.250244,212.610870 
	C613.810364,211.545151 613.965637,213.135590 613.936523,214.959671 
	C613.876343,218.729401 613.849304,222.499664 613.687988,226.734039 
	C613.184448,227.424988 612.771423,227.496750 612.046021,227.283752 
	C611.174683,226.413132 611.027466,225.576126 611.172363,224.369705 
	C611.242493,220.391479 611.226929,216.725967 611.250244,212.610870 
z"/>
<path fill="#626262" opacity="1.000000" stroke="none" 
	d="
M466.997375,227.292389 
	C467.633667,222.010056 465.474213,216.907944 468.549805,212.101379 
	C469.019745,218.389923 469.092621,224.764603 469.022888,231.592224 
	C466.170410,231.493988 467.326355,229.274292 466.997375,227.292389 
z"/>
<path fill="#6B6B6B" opacity="1.000000" stroke="none" 
	d="
M601.314148,222.218475 
	C602.435181,221.654510 603.509338,221.757767 603.974792,223.590683 
	C606.430908,224.580505 607.539490,226.834381 609.699768,228.350601 
	C611.796021,230.034332 612.419983,231.841782 611.382935,234.382294 
	C607.448364,231.012283 604.546814,226.691833 601.314148,222.218475 
z"/>
<path fill="#BD9CFF" opacity="1.000000" stroke="none" 
	d="
M283.182190,114.730629 
	C283.519928,111.719574 285.514252,109.477539 287.481873,107.403259 
	C289.259216,105.529572 291.653412,104.273880 293.079803,108.472359 
	C290.512482,108.489296 288.439880,108.749687 286.979156,111.538849 
	C286.355286,112.730057 285.590515,114.686043 283.182190,114.730629 
z"/>
<path fill="#6B6B6B" opacity="1.000000" stroke="none" 
	d="
M500.367493,235.016525 
	C500.255615,232.423950 500.671051,229.802979 500.668915,227.182343 
	C500.666656,224.440369 501.976746,223.691620 504.704834,224.243073 
	C502.810974,225.222946 502.968201,227.060333 502.983124,228.861298 
	C503.002350,231.182526 502.756592,233.424149 500.367493,235.016525 
z"/>
<path fill="#626262" opacity="1.000000" stroke="none" 
	d="
M748.043823,225.410004 
	C748.103210,224.270386 748.198975,223.456375 748.136963,222.255768 
	C746.805176,219.916000 747.419128,218.761292 749.975708,218.338898 
	C751.547546,218.769684 751.849426,219.750275 752.132935,221.167084 
	C752.590027,222.416199 753.013916,223.291351 753.001038,224.644012 
	C753.102600,225.449463 753.190674,225.900360 753.141113,226.674393 
	C752.547424,227.385147 752.023804,227.532684 751.079834,227.203537 
	C749.632507,227.012970 748.461853,227.222427 748.043823,225.410004 
z"/>
<path fill="#6B6B6B" opacity="1.000000" stroke="none" 
	d="
M660.892822,210.693329 
	C657.607788,211.675430 654.376770,212.499573 650.745850,211.181915 
	C652.650024,208.117142 656.852173,207.780609 660.892822,210.693329 
z"/>
<path fill="#6B6B6B" opacity="1.000000" stroke="none" 
	d="
M553.233215,223.852829 
	C551.544556,224.133240 550.274475,222.493988 548.522888,223.864227 
	C548.131836,222.235626 548.390381,220.617844 550.298462,219.361511 
	C551.596680,218.321838 552.300842,217.142853 553.824402,216.390305 
	C554.615662,216.271423 555.063477,216.343338 555.755737,216.738159 
	C556.020020,217.404053 556.024902,217.841202 556.028564,218.606201 
	C554.990173,220.410172 554.927246,222.398575 553.233215,223.852829 
z"/>
<path fill="#BBBBBB" opacity="1.000000" stroke="none" 
	d="
M408.811768,230.272919 
	C412.358887,231.018127 416.517822,227.758209 419.116638,232.366806 
	C416.241516,234.976822 413.013611,233.756088 409.488434,233.560394 
	C408.328430,232.560547 408.212128,231.650848 408.811768,230.272919 
z"/>
<path fill="#080808" opacity="1.000000" stroke="none" 
	d="
M694.799561,231.720886 
	C697.262390,233.100159 699.584717,232.327881 701.796631,232.606903 
	C703.248047,232.789948 705.168640,231.822449 705.933472,234.508469 
	C701.953918,235.032852 697.920532,235.136597 693.432861,235.133896 
	C692.977478,234.286133 692.976257,233.544815 693.023804,232.434921 
	C693.442749,231.651123 693.904480,231.473511 694.799561,231.720886 
z"/>
<path fill="#B088FF" opacity="1.000000" stroke="none" 
	d="
M336.385162,43.020760 
	C336.894012,39.786942 338.155701,36.488327 335.055786,33.223022 
	C338.743500,33.035828 340.997925,36.449375 339.308990,39.520706 
	C338.622162,40.769764 337.612030,41.841022 336.385162,43.020760 
z"/>
<path fill="#B088FF" opacity="1.000000" stroke="none" 
	d="
M332.752716,32.660313 
	C330.826202,35.788612 328.764862,38.837646 325.299438,40.951813 
	C326.870270,37.609772 327.562134,33.151569 332.752716,32.660313 
z"/>
<path fill="#131313" opacity="1.000000" stroke="none" 
	d="
M611.412598,234.878342 
	C611.400330,232.675964 611.162415,230.841125 609.045593,229.343674 
	C608.588806,228.550583 608.478210,228.019882 608.715881,227.101593 
	C609.670593,226.272308 610.459961,226.210190 611.629272,226.733124 
	C612.325867,227.028625 612.678650,227.095886 613.299438,227.180756 
	C614.305725,229.613205 613.351746,231.851700 612.883484,234.533539 
	C612.506714,234.974411 612.090942,235.018433 611.412598,234.878342 
z"/>
<path fill="#C8ADFF" opacity="1.000000" stroke="none" 
	d="
M185.306015,106.327759 
	C186.570923,102.452377 190.057877,104.512962 192.756653,103.766624 
	C192.025909,109.144554 188.215515,106.146980 185.306015,106.327759 
z"/>
<path fill="#2E2E2E" opacity="1.000000" stroke="none" 
	d="
M298.444366,217.286911 
	C297.614868,217.048737 297.158325,217.034042 296.359375,217.008942 
	C295.355988,216.286697 295.179138,215.451141 295.550507,214.104309 
	C295.725800,213.298218 295.733795,212.906067 295.885742,212.256760 
	C297.281403,210.773071 298.680023,210.782623 300.503448,211.801361 
	C300.843170,212.094315 300.909668,212.128098 300.887543,212.158112 
	C302.106354,213.321655 302.199036,214.695770 301.473541,216.565125 
	C300.544159,217.593674 299.726929,217.747528 298.444366,217.286911 
z"/>
<path fill="#B088FF" opacity="1.000000" stroke="none" 
	d="
M254.276123,153.804810 
	C255.011749,150.117950 257.058990,147.144913 260.679810,145.042236 
	C259.911469,148.688873 257.685059,151.554642 254.276123,153.804810 
z"/>
<path fill="#B088FF" opacity="1.000000" stroke="none" 
	d="
M310.674744,61.077240 
	C310.005219,64.826401 308.034241,67.910416 304.207458,69.905640 
	C305.006104,66.236450 307.345642,63.435497 310.674744,61.077240 
z"/>
<path fill="#737373" opacity="1.000000" stroke="none" 
	d="
M301.214264,217.640533 
	C300.908783,215.671844 300.803131,214.326859 300.781464,212.585007 
	C304.325226,214.233948 303.345673,218.682709 305.791321,221.654022 
	C305.261780,222.564453 304.609009,222.755371 303.537903,222.585480 
	C301.754883,221.438965 302.011688,219.669922 301.214264,217.640533 
z"/>
<path fill="#080808" opacity="1.000000" stroke="none" 
	d="
M408.842346,232.178406 
	C412.176819,232.399307 415.179199,232.541168 418.639130,232.728485 
	C419.720123,234.938370 418.511139,235.263977 416.750854,235.229904 
	C413.813568,235.173065 410.874146,235.223267 407.477203,235.157852 
	C407.017487,234.438354 407.016205,233.789398 407.087524,232.657104 
	C407.605194,232.058411 408.055481,232.038101 408.842346,232.178406 
z"/>
<path fill="#BD9CFF" opacity="1.000000" stroke="none" 
	d="
M772.238037,98.819771 
	C772.809387,94.882286 776.710815,94.796371 779.669922,93.026855 
	C778.983398,96.786850 775.880005,97.926399 772.238037,98.819771 
z"/>
<path fill="#B088FF" opacity="1.000000" stroke="none" 
	d="
M780.361206,93.020096 
	C781.492188,89.885651 783.163147,86.915031 786.563477,84.994019 
	C785.965942,88.513062 784.093018,91.351540 780.361206,93.020096 
z"/>
<path fill="#EAE0FF" opacity="1.000000" stroke="none" 
	d="
M217.354370,74.905960 
	C216.940308,71.627914 216.921509,68.266090 216.964386,64.449127 
	C220.689270,67.374718 219.336273,71.090645 217.354370,74.905960 
z"/>
<path fill="#8E8E8E" opacity="1.000000" stroke="none" 
	d="
M409.147797,231.962006 
	C408.724365,232.294708 408.274292,232.331940 407.492188,232.271454 
	C406.823547,229.364746 404.521851,226.272064 408.668549,224.261963 
	C408.977600,225.975159 408.949310,227.487946 409.013458,229.444946 
	C409.110992,230.481598 409.116058,231.074066 409.147797,231.962006 
z"/>
<path fill="#545454" opacity="1.000000" stroke="none" 
	d="
M409.424927,224.560608 
	C409.005890,224.462372 409.081818,224.113998 409.040955,223.940216 
	C408.996887,223.378876 408.993683,222.991302 408.989563,222.313080 
	C411.303802,222.541199 414.326904,220.290543 415.858154,224.162598 
	C413.837769,224.580170 411.840851,224.619492 409.424927,224.560608 
z"/>
<path fill="#3A3A3A" opacity="1.000000" stroke="none" 
	d="
M695.287109,218.374878 
	C695.201965,218.933136 695.129761,219.143127 695.013123,219.683228 
	C694.522461,220.392715 694.015198,220.511383 693.128662,220.109772 
	C692.865967,217.690842 692.903992,215.530853 692.986145,213.372559 
	C693.017456,212.550354 693.068726,211.502823 694.085571,211.431854 
	C695.245789,211.350891 695.753174,212.306885 696.008911,213.725647 
	C694.938477,215.242157 695.417725,216.690811 695.287109,218.374878 
z"/>
<path fill="#545454" opacity="1.000000" stroke="none" 
	d="
M554.523987,216.268936 
	C552.630127,216.805206 553.940125,220.457901 550.873840,219.358353 
	C550.828796,217.400162 549.966492,215.156677 552.921875,214.198761 
	C554.567993,214.051987 554.625427,214.985748 554.523987,216.268936 
z"/>
<path fill="#6B6B6B" opacity="1.000000" stroke="none" 
	d="
M518.298950,211.811249 
	C517.773376,212.070282 517.179565,212.030289 516.283691,211.997620 
	C515.600342,212.352448 515.153259,212.497192 514.343628,212.217102 
	C513.830505,210.828186 513.723511,209.312866 515.193970,209.381226 
	C516.268188,209.431137 518.466736,209.087448 518.298950,211.811249 
z"/>
<path fill="#B088FF" opacity="1.000000" stroke="none" 
	d="
M887.806152,39.723457 
	C885.128967,38.880260 881.885315,38.818401 879.914734,35.783154 
	C883.151428,35.460911 885.776611,36.818981 887.806152,39.723457 
z"/>
<path fill="#131313" opacity="1.000000" stroke="none" 
	d="
M650.959839,232.697922 
	C654.232117,233.792953 658.102356,230.974258 660.993164,234.574799 
	C659.994568,235.104233 658.979980,235.200851 657.585327,235.345245 
	C656.374329,235.730164 655.529114,235.925598 654.228088,235.488037 
	C653.094788,235.280075 652.370117,235.234711 651.287048,235.129517 
	C650.580017,234.699310 650.372803,234.259750 650.364380,233.395447 
	C650.440979,233.030563 650.872559,232.905045 650.959839,232.697922 
z"/>
<path fill="#BBBBBB" opacity="1.000000" stroke="none" 
	d="
M752.925232,214.208496 
	C757.535278,215.413406 756.955078,217.589325 753.793152,220.068909 
	C751.348511,218.519012 751.584778,216.584915 752.925232,214.208496 
z"/>
<path fill="#737373" opacity="1.000000" stroke="none" 
	d="
M300.879028,211.715881 
	C299.507416,212.088364 298.171661,212.082413 296.432800,212.038025 
	C295.254578,210.006958 296.462341,209.608078 298.055023,209.238541 
	C299.968262,208.794647 300.685211,209.653381 300.879028,211.715881 
z"/>
<path fill="#131313" opacity="1.000000" stroke="none" 
	d="
M554.672485,216.636917 
	C554.171997,215.860809 553.944580,215.128723 553.481689,214.227295 
	C553.264160,213.622391 553.282227,213.186798 553.412598,212.444153 
	C556.291382,212.580841 558.949524,213.097076 556.361694,216.929886 
	C555.658630,216.871582 555.302063,216.776260 554.672485,216.636917 
z"/>
<path fill="#252525" opacity="1.000000" stroke="none" 
	d="
M513.946289,212.413513 
	C514.476868,211.989334 514.907043,211.983749 515.659485,211.991547 
	C516.100037,214.860306 516.588196,217.729645 515.325928,220.797974 
	C514.713989,220.491287 514.434814,219.931976 513.994385,219.103363 
	C513.837402,216.833389 513.841675,214.832748 513.946289,212.413513 
z"/>
<path fill="#D7C3FF" opacity="1.000000" stroke="none" 
	d="
M193.935898,34.659813 
	C191.993484,34.766113 189.690964,35.881027 188.075928,33.316711 
	C190.398697,31.560015 192.532211,31.249870 193.935898,34.659813 
z"/>
<path fill="#DDCBFF" opacity="1.000000" stroke="none" 
	d="
M706.251099,214.230820 
	C706.020447,212.621231 705.998413,211.260254 705.978821,209.492371 
	C707.671143,208.881943 709.004028,209.219345 708.919312,211.298141 
	C708.854248,212.893250 709.088623,214.822891 706.251099,214.230820 
z"/>
<path fill="#D4BEFF" opacity="1.000000" stroke="none" 
	d="
M272.311707,129.939865 
	C272.199982,127.100807 274.066132,125.455841 276.655884,124.048569 
	C276.624695,126.756798 275.388702,128.882431 272.311707,129.939865 
z"/>
<path fill="#B088FF" opacity="1.000000" stroke="none" 
	d="
M910.915039,64.675003 
	C907.498108,64.335419 907.467102,60.985813 905.962769,58.431839 
	C909.403809,58.724728 909.365051,62.162769 910.915039,64.675003 
z"/>
<path fill="#B088FF" opacity="1.000000" stroke="none" 
	d="
M905.839294,56.701302 
	C902.704102,56.619171 902.927856,53.260174 901.028870,51.380199 
	C904.374878,51.168159 905.071228,53.807812 905.839294,56.701302 
z"/>
<path fill="#B088FF" opacity="1.000000" stroke="none" 
	d="
M300.646942,74.075104 
	C300.973267,76.946861 299.776428,79.101913 296.452148,80.047852 
	C297.533295,78.116783 297.813721,75.347549 300.646942,74.075104 
z"/>
<path fill="#080808" opacity="1.000000" stroke="none" 
	d="
M753.216248,213.852295 
	C753.296448,215.655991 753.264709,217.431198 753.330200,219.640594 
	C753.355286,220.512512 753.283142,220.950272 753.047668,221.679016 
	C752.751160,222.104828 752.617981,222.239655 752.257446,222.203857 
	C750.893616,221.465897 751.101501,220.342682 750.767334,219.028671 
	C749.737549,217.396500 749.792969,216.018448 750.426025,214.252197 
	C751.153625,213.584076 751.689758,213.469467 752.621399,213.785431 
	C752.974060,214.014572 753.104309,213.823807 753.216248,213.852295 
z"/>
<path fill="#BD9CFF" opacity="1.000000" stroke="none" 
	d="
M277.606445,122.209572 
	C277.566223,119.471291 278.847900,117.346237 281.844635,116.167526 
	C281.382111,118.591560 280.426208,120.910576 277.606445,122.209572 
z"/>
<path fill="#737373" opacity="1.000000" stroke="none" 
	d="
M295.448730,213.842743 
	C295.787476,214.517136 295.857117,215.343903 295.971863,216.584625 
	C295.224335,217.629883 294.431702,218.261215 293.329498,218.945190 
	C292.279083,216.699631 293.784332,215.371109 295.448730,213.842743 
z"/>
<path fill="#B088FF" opacity="1.000000" stroke="none" 
	d="
M776.977905,140.396332 
	C779.896118,140.932663 779.559265,143.449402 779.713623,146.076813 
	C776.381409,145.688828 776.964600,143.099152 776.977905,140.396332 
z"/>
<path fill="#B088FF" opacity="1.000000" stroke="none" 
	d="
M897.939087,47.676453 
	C896.053223,46.934551 893.743469,46.349026 892.913086,43.584835 
	C895.833191,43.018742 896.989868,45.040092 897.939087,47.676453 
z"/>
<path fill="#6B6B6B" opacity="1.000000" stroke="none" 
	d="
M553.270142,229.682465 
	C554.091858,225.948166 555.816895,226.009308 558.000244,229.142731 
	C556.532593,229.646988 555.047852,229.729019 553.270142,229.682465 
z"/>
<path fill="#3A3A3A" opacity="1.000000" stroke="none" 
	d="
M695.222229,231.584091 
	C694.682251,231.953690 694.222961,231.998932 693.418091,232.055267 
	C693.047668,229.998138 693.022827,227.929947 693.020874,225.420319 
	C693.361450,224.643875 693.748474,224.511154 694.450195,224.798615 
	C694.695618,225.016663 695.094788,225.123795 695.298584,225.087982 
	C695.455627,226.414200 695.408936,227.776245 695.441040,229.540527 
	C695.447571,230.381744 695.375244,230.820740 695.222229,231.584091 
z"/>
<path fill="#7D7D7D" opacity="1.000000" stroke="none" 
	d="
M737.749207,208.951996 
	C737.981689,209.716614 737.971497,210.375732 737.946106,211.359436 
	C737.196167,211.763214 736.461365,211.842361 735.357849,211.957092 
	C734.444885,209.837097 734.786072,208.389923 737.749207,208.951996 
z"/>
<path fill="#B088FF" opacity="1.000000" stroke="none" 
	d="
M321.506531,45.843719 
	C321.727936,48.409748 320.419983,50.177567 317.601624,51.096264 
	C318.272278,49.156120 318.807190,46.848438 321.506531,45.843719 
z"/>
<path fill="#DDCBFF" opacity="1.000000" stroke="none" 
	d="
M666.198242,106.229401 
	C666.356140,103.212776 668.619446,104.216957 670.578125,103.892349 
	C670.397827,106.487991 668.803955,107.208611 666.198242,106.229401 
z"/>
<path fill="#EAE0FF" opacity="1.000000" stroke="none" 
	d="
M245.065750,159.303787 
	C246.415817,158.931595 247.795731,158.917160 249.587585,158.950394 
	C248.836044,162.701416 247.248306,163.269196 245.065750,159.303787 
z"/>
<path fill="#B088FF" opacity="1.000000" stroke="none" 
	d="
M787.535156,83.135117 
	C786.859741,81.162926 787.168396,79.298965 789.559082,78.039009 
	C789.930603,79.926804 790.544739,82.124985 787.535156,83.135117 
z"/>
<path fill="#080808" opacity="1.000000" stroke="none" 
	d="
M750.802979,227.396790 
	C751.233582,226.972748 751.739929,226.978714 752.624878,226.991089 
	C753.110229,227.713440 753.217041,228.429337 753.409058,229.498108 
	C753.839172,230.618134 754.001099,231.409958 753.650452,232.624542 
	C749.588318,232.799957 751.425598,229.713257 750.802979,227.396790 
z"/>
<path fill="#626262" opacity="1.000000" stroke="none" 
	d="
M302.897339,221.794037 
	C303.862427,222.036560 304.507019,222.042801 305.473755,222.038574 
	C305.906342,222.476913 306.016724,222.925735 305.932007,223.671021 
	C305.618195,224.141144 305.499481,224.314789 305.156952,224.712769 
	C304.204346,225.422775 303.433533,225.722488 302.279663,225.297089 
	C301.790039,224.807480 301.560486,224.498199 301.074768,224.045471 
	C300.521698,223.429459 300.441040,222.922440 300.804016,222.053619 
	C301.526428,221.482941 302.041412,221.426651 302.897339,221.794037 
z"/>
<path fill="#7D7D7D" opacity="1.000000" stroke="none" 
	d="
M748.309875,211.976837 
	C747.979126,210.988907 747.981934,210.377380 748.001953,209.460556 
	C750.116333,208.001999 750.456604,209.783127 751.198975,211.304199 
	C750.619507,212.619507 749.685852,212.674606 748.309875,211.976837 
z"/>
<path fill="#252525" opacity="1.000000" stroke="none" 
	d="
M747.910156,212.016571 
	C748.806702,211.669693 749.637024,211.738968 750.869873,211.700745 
	C752.362244,211.646042 753.225342,211.947144 753.053955,213.653992 
	C752.367493,214.086838 751.760925,214.159103 750.698364,214.276184 
	C749.662903,214.655563 749.055603,214.687607 748.175659,214.297424 
	C747.897583,213.548889 747.870789,212.990799 747.910156,212.016571 
z"/>
<path fill="#2E2E2E" opacity="1.000000" stroke="none" 
	d="
M642.884644,220.414429 
	C646.273804,221.177155 645.494263,222.972290 643.344971,224.956696 
	C642.910828,223.604416 642.853882,222.214294 642.884644,220.414429 
z"/>
<path fill="#B088FF" opacity="1.000000" stroke="none" 
	d="
M900.923218,50.667191 
	C899.393616,51.044537 898.037476,50.784019 897.970093,48.430904 
	C899.543884,48.010544 900.910767,48.244850 900.923218,50.667191 
z"/>
<path fill="#D7C3FF" opacity="1.000000" stroke="none" 
	d="
M421.695160,150.977570 
	C420.125092,151.253189 418.984131,150.712936 418.728333,148.693680 
	C420.485229,147.959183 421.999054,148.027725 421.695160,150.977570 
z"/>
<path fill="#C8ADFF" opacity="1.000000" stroke="none" 
	d="
M135.195251,156.193253 
	C136.643433,156.006592 137.950851,156.300476 138.135529,158.399963 
	C136.437836,159.065079 135.063019,158.849976 135.195251,156.193253 
z"/>
<path fill="#737373" opacity="1.000000" stroke="none" 
	d="
M308.327209,227.810272 
	C307.685852,228.068558 307.158691,228.036606 306.366211,227.993408 
	C305.504608,227.628235 305.311523,227.059036 305.302795,226.102142 
	C305.431671,225.602615 305.520538,225.413712 305.868530,225.048981 
	C307.438446,225.283844 308.174042,226.197311 308.327209,227.810272 
z"/>
<path fill="#6B6B6B" opacity="1.000000" stroke="none" 
	d="
M611.963562,226.648468 
	C611.267517,227.152924 610.561951,227.344482 609.492004,227.579590 
	C608.509216,227.314606 608.348450,226.748672 608.301453,225.827469 
	C608.354370,225.331665 608.392273,225.135620 608.530884,224.657471 
	C609.256653,224.480057 609.881775,224.584747 610.882446,224.373215 
	C611.489990,224.816513 611.721985,225.576035 611.963562,226.648468 
z"/>
<path fill="#C8ADFF" opacity="1.000000" stroke="none" 
	d="
M143.165298,158.755737 
	C142.918793,157.302139 143.260361,156.067245 145.275909,155.807526 
	C146.029526,157.495605 145.907776,158.894363 143.165298,158.755737 
z"/>
<path fill="#C8ADFF" opacity="1.000000" stroke="none" 
	d="
M876.975464,34.659325 
	C875.826538,35.040981 874.556885,35.316406 874.019104,33.418575 
	C875.843567,31.426073 876.689209,32.181252 876.975464,34.659325 
z"/>
<path fill="#D7C3FF" opacity="1.000000" stroke="none" 
	d="
M419.130096,158.809433 
	C418.960968,157.361664 419.217834,155.995728 421.331299,155.732529 
	C422.080994,157.476746 421.958221,158.938187 419.130096,158.809433 
z"/>
<path fill="#BD9CFF" opacity="1.000000" stroke="none" 
	d="
M269.574799,133.149948 
	C268.969299,131.639038 268.975769,130.192566 271.476257,129.931641 
	C272.072571,131.480057 271.821106,132.772095 269.574799,133.149948 
z"/>
<path fill="#737373" opacity="1.000000" stroke="none" 
	d="
M292.418213,221.772095 
	C293.020325,223.114929 293.216034,224.569855 290.820526,225.068253 
	C290.151001,223.609985 290.570557,222.478104 292.418213,221.772095 
z"/>
<path fill="#B088FF" opacity="1.000000" stroke="none" 
	d="
M762.749084,106.616737 
	C764.145996,105.974411 765.665833,105.692268 766.090698,108.236580 
	C764.512939,109.085625 763.370972,108.655937 762.749084,106.616737 
z"/>
<path fill="#DDCBFF" opacity="1.000000" stroke="none" 
	d="
M674.012146,103.764969 
	C674.022034,102.279877 674.380127,100.850517 676.675537,101.050003 
	C677.031860,102.828529 676.600281,104.180763 674.012146,103.764969 
z"/>
<path fill="#B088FF" opacity="1.000000" stroke="none" 
	d="
M316.471497,52.840481 
	C317.059082,54.376301 317.074860,55.887005 314.422974,56.015560 
	C313.701233,54.295723 314.464447,53.317394 316.471497,52.840481 
z"/>
<path fill="#BBBBBB" opacity="1.000000" stroke="none" 
	d="
M753.767822,232.893433 
	C753.418945,232.208832 753.354370,231.416962 753.391968,230.238037 
	C755.305908,229.760086 755.967651,230.763657 755.890503,232.769989 
	C755.243835,233.007324 754.648010,232.896759 753.767822,232.893433 
z"/>
<path fill="#C8ADFF" opacity="1.000000" stroke="none" 
	d="
M196.129501,103.734367 
	C195.996109,102.154755 196.526108,100.968079 198.679108,101.067352 
	C199.581635,101.694824 199.685791,102.395027 199.127258,103.412148 
	C198.065125,103.720726 197.287048,103.781509 196.129501,103.734367 
z"/>
<path fill="#6B6B6B" opacity="1.000000" stroke="none" 
	d="
M515.694763,233.101593 
	C516.032043,233.530762 516.028687,233.970901 516.023987,234.741699 
	C514.272705,235.867630 513.566284,235.227158 513.860046,233.200134 
	C514.450073,233.037445 514.902100,233.074997 515.694763,233.101593 
z"/>
<path fill="#D4BEFF" opacity="1.000000" stroke="none" 
	d="
M839.819153,32.757584 
	C840.060059,34.641678 839.040222,35.023296 837.307068,34.953728 
	C837.213440,33.405407 837.507324,31.927191 839.819153,32.757584 
z"/>
<path fill="#B088FF" opacity="1.000000" stroke="none" 
	d="
M892.692566,42.844849 
	C891.573486,43.049126 890.327820,43.119541 890.024292,41.214981 
	C891.901672,39.802979 892.349365,41.068253 892.692566,42.844849 
z"/>
<path fill="#B088FF" opacity="1.000000" stroke="none" 
	d="
M313.706787,56.118095 
	C314.055756,57.455269 314.071655,58.861214 311.823364,59.103775 
	C311.099335,57.509846 311.927032,56.651001 313.706787,56.118095 
z"/>
<path fill="#D7C3FF" opacity="1.000000" stroke="none" 
	d="
M419.895142,34.786469 
	C418.774963,34.932194 417.510010,35.028168 417.072021,33.224724 
	C419.115326,31.346458 419.438812,33.033779 419.895142,34.786469 
z"/>
<path fill="#6B6B6B" opacity="1.000000" stroke="none" 
	d="
M605.657104,224.193695 
	C605.401672,223.478226 605.367371,223.001541 605.227539,222.181595 
	C606.346375,222.319061 608.187744,221.627182 608.612366,224.019958 
	C608.631470,224.375366 608.508423,224.480240 608.448853,224.534866 
	C607.526733,224.945953 606.691101,224.872086 605.657104,224.193695 
z"/>
<path fill="#737373" opacity="1.000000" stroke="none" 
	d="
M303.419891,230.252228 
	C304.460785,230.756271 305.632660,231.565994 306.906830,232.671753 
	C305.908783,232.089279 303.580566,232.972809 303.419891,230.252228 
z"/>
<path fill="#989898" opacity="1.000000" stroke="none" 
	d="
M650.139038,233.093369 
	C650.542480,233.484818 650.643921,233.939087 650.837036,234.731522 
	C649.416687,235.695053 648.141052,235.840103 647.992432,233.331848 
	C648.588928,233.068848 649.213074,233.112503 650.139038,233.093369 
z"/>
<path fill="#BD9CFF" opacity="1.000000" stroke="none" 
	d="
M242.933533,40.400913 
	C244.535538,40.192997 245.747604,40.757622 245.708099,42.982918 
	C244.143341,43.111237 242.783875,42.726986 242.933533,40.400913 
z"/>
<path fill="#989898" opacity="1.000000" stroke="none" 
	d="
M653.911743,235.583710 
	C654.676025,235.249069 655.532654,235.172714 656.797241,235.244690 
	C656.323303,236.862122 655.196838,236.588257 653.911743,235.583710 
z"/>
<path fill="#B088FF" opacity="1.000000" stroke="none" 
	d="
M262.108765,143.391083 
	C262.033600,142.364777 262.073853,141.291962 263.613281,140.998795 
	C264.057922,142.170914 264.203796,143.385117 262.108765,143.391083 
z"/>
<path fill="#494949" opacity="1.000000" stroke="none" 
	d="
M596.052979,232.303833 
	C596.487854,231.950653 596.897034,231.969833 597.614136,231.985474 
	C597.967285,233.182281 598.899231,234.700775 596.409302,235.019180 
	C596.026062,234.164703 596.026611,233.420456 596.052979,232.303833 
z"/>
<path fill="#BD9CFF" opacity="1.000000" stroke="none" 
	d="
M772.060059,100.554077 
	C771.208984,100.897163 769.999023,101.266769 769.622437,100.199226 
	C769.227112,99.078407 770.458557,99.175179 771.456299,98.893723 
	C771.852661,99.313454 771.925049,99.765289 772.060059,100.554077 
z"/>
<path fill="#737373" opacity="1.000000" stroke="none" 
	d="
M735.729736,233.086182 
	C736.180298,232.554886 736.437622,232.346436 736.947021,232.113083 
	C737.464844,232.794388 737.730591,233.500595 738.020142,234.508118 
	C737.580688,234.908005 737.117371,235.006577 736.341675,234.926056 
	C735.626526,234.388855 735.462158,233.942886 735.729736,233.086182 
z"/>
<path fill="#DDCBFF" opacity="1.000000" stroke="none" 
	d="
M199.194229,103.711868 
	C198.888214,103.015846 198.933243,102.371758 199.004181,101.401985 
	C199.463531,101.030640 199.896957,100.984978 200.657135,100.954895 
	C200.818344,102.063293 201.251892,103.464661 199.194229,103.711868 
z"/>
<path fill="#B088FF" opacity="1.000000" stroke="none" 
	d="
M779.677124,149.218689 
	C780.837341,149.068573 781.707275,149.288025 781.886414,150.816727 
	C780.831238,150.961670 779.250366,151.475052 779.677124,149.218689 
z"/>
<path fill="#BBBBBB" opacity="1.000000" stroke="none" 
	d="
M751.984253,222.382080 
	C752.030090,222.033234 752.449707,221.900055 752.666992,221.935028 
	C754.034119,222.632690 753.839844,223.596390 753.243774,224.798645 
	C751.773804,224.661240 751.980164,223.637238 751.984253,222.382080 
z"/>
<path fill="#D7C3FF" opacity="1.000000" stroke="none" 
	d="
M137.689758,33.032089 
	C138.131500,34.474281 137.349762,35.120777 135.692520,35.321915 
	C134.989838,33.739204 135.764450,33.054726 137.689758,33.032089 
z"/>
<path fill="#D7C3FF" opacity="1.000000" stroke="none" 
	d="
M421.840851,37.876301 
	C420.540009,37.865673 420.073914,36.943615 419.916992,35.445686 
	C421.675201,34.957134 422.063629,36.006252 421.840851,37.876301 
z"/>
<path fill="#B088FF" opacity="1.000000" stroke="none" 
	d="
M703.387878,157.199493 
	C704.436401,156.975754 705.474487,156.970581 706.011353,158.396759 
	C704.942871,158.838638 703.690552,159.252563 703.387878,157.199493 
z"/>
<path fill="#6B6B6B" opacity="1.000000" stroke="none" 
	d="
M598.475830,220.013580 
	C597.857727,219.184036 597.751892,218.093765 598.652283,217.537033 
	C599.703491,216.887039 599.935486,217.956512 600.237305,219.008270 
	C599.778503,219.513672 599.304321,219.694229 598.475830,220.013580 
z"/>
<path fill="#B088FF" opacity="1.000000" stroke="none" 
	d="
M251.193924,157.724762 
	C250.981659,156.845337 251.371155,156.186142 252.659088,156.005432 
	C252.887299,156.904297 252.478500,157.543335 251.193924,157.724762 
z"/>
<path fill="#7D7D7D" opacity="1.000000" stroke="none" 
	d="
M735.743896,232.785858 
	C735.961304,233.204224 735.999573,233.645081 736.033569,234.416473 
	C735.132874,234.650299 734.283997,234.515488 735.040649,233.118118 
	C735.246338,232.978317 735.564819,232.808334 735.743896,232.785858 
z"/>
<path fill="#B088FF" opacity="1.000000" stroke="none" 
	d="
M302.673950,72.037476 
	C302.955292,72.953293 302.667816,73.712624 301.298096,73.947083 
	C300.896606,72.964546 301.176361,72.198486 302.673950,72.037476 
z"/>
<path fill="#626262" opacity="1.000000" stroke="none" 
	d="
M465.205811,234.716736 
	C465.561798,233.033646 466.236572,232.745667 467.042999,234.536774 
	C466.533752,234.884109 465.998138,234.964035 465.205811,234.716736 
z"/>
<path fill="#B088FF" opacity="1.000000" stroke="none" 
	d="
M323.721497,43.118320 
	C323.972534,44.012085 323.667206,44.739197 322.358551,44.978306 
	C321.940918,43.996193 322.227966,43.251423 323.721497,43.118320 
z"/>
<path fill="#626262" opacity="1.000000" stroke="none" 
	d="
M649.225586,216.607819 
	C649.297241,216.022949 649.662720,215.495148 650.279297,214.913956 
	C650.690674,215.740616 650.505676,216.427185 649.225586,216.607819 
z"/>
<path fill="#B088FF" opacity="1.000000" stroke="none" 
	d="
M243.095001,157.293655 
	C243.935455,157.035355 244.650146,157.267426 245.057983,158.396271 
	C244.174988,158.862961 243.320358,158.839340 243.095001,157.293655 
z"/>
<path fill="#989898" opacity="1.000000" stroke="none" 
	d="
M647.027710,216.971848 
	C647.148926,216.673264 647.321899,216.678360 647.719360,216.813919 
	C647.963623,217.121460 647.983521,217.298523 647.991455,217.742584 
	C647.679382,217.764908 647.379456,217.520218 647.027710,216.971848 
z"/>
<path fill="#737373" opacity="1.000000" stroke="none" 
	d="
M304.791046,224.361404 
	C304.831177,224.062271 305.282227,223.993774 305.509583,223.980637 
	C305.768372,224.132965 305.799866,224.298431 305.979492,224.668533 
	C306.127686,224.873154 305.940216,225.049438 305.845764,225.136841 
	C305.334229,225.184723 305.000854,224.996689 304.791046,224.361404 
z"/>
<path fill="#FDFCFF" opacity="1.000000" stroke="none" 
	d="
M821.680176,58.888504 
	C821.758057,57.385197 821.985413,56.357662 823.752686,56.105553 
	C825.768921,54.337181 827.833069,53.079361 829.766418,51.167419 
	C839.459229,42.848255 850.815918,42.466614 862.400146,43.012829 
	C864.223999,43.098820 866.048950,43.161484 868.326050,43.274284 
	C870.211060,44.417507 871.936096,44.850620 873.906128,45.552078 
	C874.639526,45.724201 875.068970,45.763187 875.820312,45.835312 
	C876.902588,47.304775 878.526062,47.480972 880.009888,48.378223 
	C880.719849,48.529598 881.123657,48.610706 881.817627,48.799114 
	C882.513428,49.552303 883.076599,50.051987 883.871582,50.711342 
	C889.452332,52.922729 892.001648,57.818836 895.072083,62.038990 
	C903.453735,73.559097 906.315369,86.893677 905.030518,100.685684 
	C903.516113,116.943100 898.272339,131.805283 883.700500,141.583771 
	C873.949951,148.126892 863.188232,149.685913 851.757690,148.966858 
	C834.520325,147.882507 822.812134,138.595459 814.798889,124.091736 
	C811.329773,117.812813 809.432983,110.752251 808.865356,103.626595 
	C808.131653,94.414436 808.123291,85.074226 811.305664,76.209396 
	C813.049377,71.352005 814.871460,66.413864 818.555786,62.127014 
	C819.914856,61.178665 820.639587,60.071484 821.680176,58.888504 
z"/>
<path fill="#EAE0FF" opacity="1.000000" stroke="none" 
	d="
M829.605835,50.925804 
	C829.442749,53.832542 827.281860,55.089474 824.431885,56.021278 
	C824.750488,53.277046 826.499084,51.605572 829.605835,50.925804 
z"/>
<path fill="#C8ADFF" opacity="1.000000" stroke="none" 
	d="
M874.082031,45.363087 
	C872.265137,45.739807 869.949219,46.982822 868.859314,43.676876 
	C870.878174,42.768047 872.597595,43.360626 874.082031,45.363087 
z"/>
<path fill="#C8ADFF" opacity="1.000000" stroke="none" 
	d="
M880.191162,48.135262 
	C878.362183,49.144802 876.820007,48.922504 876.178467,46.239296 
	C877.730835,45.956017 879.540588,45.599480 880.191162,48.135262 
z"/>
<path fill="#EAE0FF" opacity="1.000000" stroke="none" 
	d="
M821.403076,58.657387 
	C822.049438,60.349503 821.453125,61.542339 819.199829,61.900200 
	C818.857239,60.359367 818.972107,58.865280 821.403076,58.657387 
z"/>
<path fill="#C8ADFF" opacity="1.000000" stroke="none" 
	d="
M884.035889,50.563698 
	C883.088013,50.995163 882.276917,50.795216 882.103027,49.251701 
	C883.007385,48.971962 883.721008,49.293175 884.035889,50.563698 
z"/>
<path fill="#FBFAFF" opacity="1.000000" stroke="none" 
	d="
M766.137085,92.726921 
	C750.208435,97.176636 734.178345,94.433136 718.324280,95.278412 
	C714.879944,95.462044 713.623047,94.317360 713.659119,90.788979 
	C713.803650,76.638626 713.783936,62.485371 713.667725,48.334488 
	C713.640015,44.953426 714.678162,43.647671 718.254272,43.705154 
	C730.237854,43.897804 742.236084,43.481281 754.210266,43.867271 
	C765.497253,44.231117 774.551453,49.104031 778.535034,60.149651 
	C780.213562,64.803787 780.525696,70.347321 778.046936,75.173409 
	C776.509277,78.167221 777.877808,82.304100 774.188110,84.765358 
	C773.097168,85.611069 773.048035,86.793304 772.070190,87.618607 
	C771.798767,87.747414 771.845520,87.853928 771.795715,87.823898 
	C771.404236,88.914650 770.162659,88.911392 769.318604,89.858444 
	C769.156311,90.109573 769.087097,90.094368 769.098877,90.127777 
	C768.064575,90.800171 767.284546,91.744217 766.137085,92.726921 
z"/>
<path fill="#BD9CFF" opacity="1.000000" stroke="none" 
	d="
M766.263000,92.931763 
	C765.926514,91.276909 766.348816,89.992950 768.740723,90.148682 
	C769.016235,91.742531 768.616211,93.052399 766.263000,92.931763 
z"/>
<path fill="#BD9CFF" opacity="1.000000" stroke="none" 
	d="
M769.504639,90.088943 
	C769.001709,88.687630 769.683655,87.974052 771.406128,87.823853 
	C771.949097,89.246262 771.286133,89.977776 769.504639,90.088943 
z"/>
<path fill="#BD9CFF" opacity="1.000000" stroke="none" 
	d="
M772.152588,87.773285 
	C771.920105,86.630424 771.901367,85.425491 773.749939,85.152969 
	C773.999512,86.275841 774.171021,87.580765 772.152588,87.773285 
z"/>
<path fill="#FBF9FF" opacity="1.000000" stroke="none" 
	d="
M173.989838,95.253616 
	C165.674393,95.252556 157.853638,95.121284 150.040802,95.312874 
	C146.724808,95.394188 145.726349,94.144997 145.750076,90.972404 
	C145.857071,76.668747 145.885681,62.362869 145.734512,48.059990 
	C145.693939,44.220535 147.376709,43.206993 150.845810,43.248222 
	C160.771454,43.366169 170.715057,42.935730 180.623108,43.370369 
	C200.331512,44.234928 208.431503,57.472240 205.729919,75.189018 
	C203.834320,87.620270 193.581116,95.143730 180.974564,95.246758 
	C178.812408,95.264435 176.650009,95.252357 173.989838,95.253616 
z"/>
<path fill="#FCFAFF" opacity="1.000000" stroke="none" 
	d="
M676.692505,50.916710 
	C680.641785,57.002609 682.703674,63.108742 682.433777,70.351814 
	C682.120667,78.756310 679.262573,85.372269 672.693176,90.486610 
	C671.683105,91.272995 670.753357,92.162567 669.445923,93.099091 
	C666.742065,94.683228 663.834229,94.217072 661.032227,95.489151 
	C649.201111,95.639359 637.708374,95.647491 625.768738,95.644295 
	C622.733887,93.928375 622.536072,91.261078 622.528015,88.555168 
	C622.490662,76.074577 622.457764,63.593594 622.538574,51.113400 
	C622.576599,45.245403 623.813904,44.046188 629.543518,44.018856 
	C639.527893,43.971237 649.512512,44.001347 659.497070,44.006947 
	C661.835876,44.008259 664.147339,44.165195 666.781799,45.306877 
	C669.821167,45.500248 671.786316,46.899075 674.000854,48.613358 
	C674.639038,49.939739 675.862000,49.964882 676.692505,50.916710 
z"/>
<path fill="#BD9CFF" opacity="1.000000" stroke="none" 
	d="
M667.142883,45.140480 
	C654.982666,44.523426 642.712646,44.955635 630.451538,44.897007 
	C623.902039,44.865688 623.892700,44.908012 623.888733,51.660721 
	C623.881592,63.803146 623.921204,75.945763 623.856750,88.087852 
	C623.844177,90.459122 624.109863,92.714066 625.190674,95.257698 
	C620.419373,96.517853 621.297424,92.548042 621.190674,90.167389 
	C620.900146,83.687492 621.086792,77.186119 621.087280,70.693260 
	C621.087830,63.367989 621.073303,56.042652 621.101318,48.717476 
	C621.116150,44.852287 622.384521,42.748627 626.979736,42.873985 
	C638.791382,43.196201 650.617615,42.958015 662.437317,43.041199 
	C664.087830,43.052814 666.276794,42.196037 667.142883,45.140480 
z"/>
<path fill="#BD9CFF" opacity="1.000000" stroke="none" 
	d="
M661.118530,95.751686 
	C662.503906,92.653229 665.483093,93.148010 668.689087,93.136810 
	C667.504395,96.683067 664.384460,95.884026 661.118530,95.751686 
z"/>
<path fill="#BD9CFF" opacity="1.000000" stroke="none" 
	d="
M676.828064,50.837402 
	C675.747803,50.973957 674.405762,51.167442 674.257080,49.178894 
	C675.394531,48.992977 676.618408,48.968380 676.828064,50.837402 
z"/>
<path fill="#BBBBBB" opacity="1.000000" stroke="none" 
	d="
M553.192688,224.289520 
	C553.637756,222.301163 552.842041,219.887604 555.652832,218.953491 
	C557.674622,220.146423 559.315735,221.642899 558.279785,223.777267 
	C557.272156,225.853348 555.205322,225.101471 553.192688,224.289520 
z"/>
<path fill="#252525" opacity="1.000000" stroke="none" 
	d="
M551.142822,229.211411 
	C550.914307,229.158691 550.622925,229.010330 550.317078,228.903015 
	C548.936279,228.418503 548.746704,227.360870 549.113586,226.164581 
	C549.208435,225.855301 549.891968,225.419281 550.123413,225.509140 
	C551.606628,226.085205 550.717224,227.457413 551.131042,228.835922 
	C551.263611,229.215973 551.073364,229.134674 551.142822,229.211411 
z"/>
<path fill="#252525" opacity="1.000000" stroke="none" 
	d="
M694.866699,224.623550 
	C694.328613,225.004517 693.961609,224.992371 693.319214,224.979568 
	C691.925720,223.573242 691.629089,222.038483 692.563232,220.099625 
	C693.289978,219.892670 693.769714,219.935196 694.609070,219.995544 
	C694.991760,221.419052 695.014771,222.824738 694.866699,224.623550 
z"/>
<path fill="#EFEFEF" opacity="1.000000" stroke="none" 
	d="
M300.853271,221.824554 
	C300.819946,222.563690 300.833099,222.946167 300.832428,223.615341 
	C295.140808,224.219101 295.140808,224.219101 297.516663,219.788666 
	C298.319305,219.407486 298.783203,219.329605 299.606445,219.485229 
	C300.551971,220.080017 300.834900,220.718018 300.853271,221.824554 
z"/>
<path fill="#131313" opacity="1.000000" stroke="none" 
	d="
M304.534882,224.133514 
	C304.980530,224.370407 305.129852,224.678558 305.515259,225.105469 
	C305.826141,225.914886 305.900970,226.605560 306.038330,227.639191 
	C304.321320,230.120819 303.921082,227.145798 302.443756,226.977951 
	C302.121216,226.488556 302.092438,226.096161 302.041626,225.410263 
	C302.759247,224.812775 303.498932,224.508774 304.534882,224.133514 
z"/>
<path fill="#737373" opacity="1.000000" stroke="none" 
	d="
M300.421356,219.993042 
	C299.511749,219.964676 299.030304,219.928635 298.213928,219.753845 
	C297.916504,218.976334 297.954010,218.337570 298.031433,217.381104 
	C298.807404,217.013901 299.543457,216.964386 300.646973,216.965851 
	C301.014435,217.016815 300.988220,216.988159 300.974792,216.974182 
	C301.792572,218.000702 301.844055,219.012360 300.421356,219.993042 
z"/>
<path fill="#737373" opacity="1.000000" stroke="none" 
	d="
M737.845215,228.026596 
	C736.920898,226.385178 736.954224,225.062546 739.612183,224.966431 
	C739.938049,226.277084 740.157104,227.786041 737.845215,228.026596 
z"/>
<path fill="#EFEFEF" opacity="1.000000" stroke="none" 
	d="
M747.493286,214.159149 
	C748.502747,214.226379 749.081116,214.345810 749.950928,214.393112 
	C750.351135,215.531326 750.459839,216.741669 750.585999,218.316788 
	C749.623108,219.391098 748.044983,219.510773 748.033691,221.549805 
	C745.647705,221.909897 743.316345,221.950623 740.551392,221.943802 
	C738.214661,219.695404 738.263977,217.324371 739.820435,214.499054 
	C740.137329,214.148514 740.138672,214.132080 740.133911,214.128632 
	C742.440125,214.153915 744.751099,214.182617 747.493286,214.159149 
z"/>
<path fill="#737373" opacity="1.000000" stroke="none" 
	d="
M739.728699,214.107605 
	C740.103149,216.444870 740.068909,218.741226 740.076233,221.466919 
	C738.478210,222.190643 736.898865,221.907379 737.219360,219.907516 
	C737.542053,217.893967 735.326904,214.785645 739.728699,214.107605 
z"/>
<path fill="#494949" opacity="1.000000" stroke="none" 
	d="
M605.092773,223.964447 
	C606.246765,224.054169 607.057495,224.153412 608.128784,224.421082 
	C608.580872,225.339294 608.772461,226.089081 609.045898,227.231018 
	C609.114319,227.947693 609.063416,228.266266 608.908447,228.815155 
	C606.429443,228.438904 606.375610,225.545227 604.245361,224.204590 
	C604.293091,223.940720 604.521362,223.957352 605.092773,223.964447 
z"/>
<path fill="#131313" opacity="1.000000" stroke="none" 
	d="
M299.986877,220.318726 
	C301.073364,219.536255 300.952057,218.562103 300.974854,217.307495 
	C303.976807,217.208542 302.587463,219.715622 303.182617,221.626709 
	C302.681976,222.067398 302.146118,222.104446 301.208527,222.161346 
	C300.531403,221.666367 300.255981,221.151520 299.986877,220.318726 
z"/>
</svg>